<svg xmlns="http://www.w3.org/2000/svg" viewBox="0 0 32 32">
  <defs>
    <filter id="glow" x="-30%" y="-30%" width="160%" height="160%">
      <feGaussianBlur stdDeviation="0.9" result="blur"/>
      <feMerge>
        <feMergeNode in="blur"/>
        <feMergeNode in="SourceGraphic"/>
      </feMerge>
    </filter>
  </defs>

  <!-- Background -->
  <rect width="32" height="32" rx="5" fill="#0a1f3d"/>

  <!-- Vessel network -->
  <g filter="url(#glow)" stroke-linecap="round" stroke-linejoin="round" fill="none">

    <!-- Main trunk -->
    <path d="M16 31 C15.5 27 15.2 23.5 16 20" stroke="#60a5fa" stroke-width="2.2"/>

    <!-- Left main branch -->
    <path d="M16 20.5 C13.5 18.5 10.5 17 7.5 16" stroke="#60a5fa" stroke-width="1.7"/>
    <!-- Left upper sub -->
    <path d="M7.5 16 C5.5 13.5 4 10.5 3.5 8" stroke="#93c5fd" stroke-width="1.1"/>
    <!-- Left lower sub -->
    <path d="M7.5 16 C5.5 18 4 20 3 22" stroke="#93c5fd" stroke-width="1"/>
    <!-- Left inner twig -->
    <path d="M11 17 C10 14.5 9.5 12 9 9.5" stroke="#bfdbfe" stroke-width="0.75"/>

    <!-- Right main branch -->
    <path d="M16 20.5 C18.5 18.5 21.5 17 24.5 16" stroke="#60a5fa" stroke-width="1.7"/>
    <!-- Right upper sub -->
    <path d="M24.5 16 C26.5 13.5 28 10.5 28.5 8" stroke="#93c5fd" stroke-width="1.1"/>
    <!-- Right lower sub -->
    <path d="M24.5 16 C26.5 18 28 20 29 22" stroke="#93c5fd" stroke-width="1"/>
    <!-- Right inner twig -->
    <path d="M21 17 C22 14.5 22.5 12 23 9.5" stroke="#bfdbfe" stroke-width="0.75"/>

    <!-- Upper trunk continuation -->
    <path d="M16 20 C16.2 16 15.5 12 15.5 8" stroke="#60a5fa" stroke-width="1.5"/>
    <!-- Top-left branch -->
    <path d="M15.5 8 C13 6 10 4.5 7.5 3.5" stroke="#93c5fd" stroke-width="1.1"/>
    <!-- Top-right branch -->
    <path d="M15.5 8 C18 6 21 4.5 23.5 3.5" stroke="#93c5fd" stroke-width="1.1"/>
    <!-- Top center twig -->
    <path d="M15.5 8 C15 5.5 15 3.5 15.5 2" stroke="#bfdbfe" stroke-width="0.75"/>

    <!-- Tiny terminal twigs -->
    <path d="M7.5 3.5 C6.5 2.5 5.5 2 4.5 1.5" stroke="#bfdbfe" stroke-width="0.6"/>
    <path d="M23.5 3.5 C24.5 2.5 25.5 2 26.5 1.5" stroke="#bfdbfe" stroke-width="0.6"/>
    <path d="M3.5 8 C2.5 7 2 5.5 1.5 4.5" stroke="#bfdbfe" stroke-width="0.6"/>
    <path d="M28.5 8 C29.5 7 30 5.5 30.5 4.5" stroke="#bfdbfe" stroke-width="0.6"/>

  </g>
</svg>
